<svg width="36" height="37" fill="none" xmlns="http://www.w3.org/2000/svg"><rect y=".2" width="36" height="36" rx="18" fill="#343961"/><g clip-path="url('#clip0_621_74374')" stroke="#00BAFF" stroke-width="1.5" stroke-linecap="round" stroke-linejoin="round"><path d="M13.834 14.033h8.333M18 21.67l1.253.657c.244.129.53-.079.483-.35l-.24-1.396 1.015-.988a.333.333 0 0 0-.184-.567l-1.402-.204-.627-1.27a.333.333 0 0 0-.596 0l-.627 1.27-1.402.205a.333.333 0 0 0-.184.567l1.014.988-.239 1.395a.333.333 0 0 0 .483.351L18 21.67Z"/><path d="M23.833 10.83H12.167c-.921 0-1.667.746-1.667 1.667v11.536c0 .921.746 1.667 1.667 1.667h11.666c.921 0 1.667-.746 1.667-1.667V12.497c0-.921-.746-1.667-1.667-1.667Z"/></g><defs><clipPath id="clip0_621_74374"><path fill="#fff" transform="translate(9 9.2)" d="M0 0h18v18H0z"/></clipPath></defs></svg>