<svg width="36" height="37" fill="none" xmlns="http://www.w3.org/2000/svg"><rect y=".86" width="36" height="36" rx="18" fill="#343961"/><g clip-path="url('#clip0_621_74422')" stroke="#00BAFF" stroke-width="1.5" stroke-linecap="round" stroke-linejoin="round"><path d="M13.834 14.693h8.333M18 22.33l1.253.658c.244.128.53-.08.483-.351l-.24-1.396 1.015-.988a.333.333 0 0 0-.184-.567l-1.402-.203-.627-1.271a.333.333 0 0 0-.596 0l-.627 1.27-1.402.205a.333.333 0 0 0-.184.567l1.014.988-.239 1.395a.333.333 0 0 0 .483.351L18 22.33Z"/><path d="M23.833 11.49H12.167c-.921 0-1.667.746-1.667 1.667v11.536c0 .921.746 1.667 1.667 1.667h11.666c.921 0 1.667-.746 1.667-1.667V13.157c0-.921-.746-1.667-1.667-1.667Z"/></g><defs><clipPath id="clip0_621_74422"><path fill="#fff" transform="translate(9 9.86)" d="M0 0h18v18H0z"/></clipPath></defs></svg>