<svg width="37" height="32" fill="none" xmlns="http://www.w3.org/2000/svg"><g clip-path="url('#clip0_621_72518')"><path d="M17.502 22.672a6.42 6.42 0 0 1-2.594-.531 6.62 6.62 0 0 1-2.125-1.422 6.622 6.622 0 0 1-1.422-2.125 6.422 6.422 0 0 1-.53-2.594c0-.917.176-1.781.53-2.594a6.622 6.622 0 0 1 1.422-2.125 6.62 6.62 0 0 1 2.125-1.422 6.42 6.42 0 0 1 2.594-.53 6.42 6.42 0 0 1 2.594.53 6.62 6.62 0 0 1 2.125 1.422 6.622 6.622 0 0 1 1.422 2.125c.354.813.53 1.677.53 2.594 0 .917-.176 1.781-.53 2.594a6.622 6.622 0 0 1-1.422 2.125 6.62 6.62 0 0 1-2.125 1.422 6.42 6.42 0 0 1-2.594.53Zm-.672-7.344v4h1.344v-4H16.83Zm0-2.656V14h1.344v-1.328H16.83Z" fill="#6A73B5"/></g><rect x="1.17" y=".5" width="35.33" height="31" rx="3.5" stroke="#4F5794"/><defs><clipPath id="clip0_621_72518"><path fill="#fff" transform="matrix(1 0 0 -1 10.83 24)" d="M0 0h16v16H0z"/></clipPath></defs></svg>