<svg width="34" height="32" fill="none" xmlns="http://www.w3.org/2000/svg"><g clip-path="url('#clip0_621_72422')"><path d="M15.362 22.672a6.42 6.42 0 0 1-2.594-.531 6.62 6.62 0 0 1-2.125-1.422 6.62 6.62 0 0 1-1.422-2.125A6.42 6.42 0 0 1 8.69 16c0-.917.177-1.781.531-2.594a6.62 6.62 0 0 1 1.422-2.125 6.62 6.62 0 0 1 2.125-1.422 6.42 6.42 0 0 1 2.594-.53 6.42 6.42 0 0 1 2.594.53 6.62 6.62 0 0 1 2.125 1.422 6.621 6.621 0 0 1 1.421 2.125A6.42 6.42 0 0 1 22.034 16a6.42 6.42 0 0 1-.532 2.594 6.621 6.621 0 0 1-1.421 2.125 6.62 6.62 0 0 1-2.125 1.422 6.42 6.42 0 0 1-2.594.53Zm-.672-7.344v4h1.344v-4H14.69Zm0-2.656V14h1.344v-1.328H14.69Z" fill="#6A73B5"/></g><rect x=".86" y=".5" width="31.66" height="31" rx="3.5" stroke="#4F5794"/><defs><clipPath id="clip0_621_72422"><path fill="#fff" transform="matrix(1 0 0 -1 8.69 24)" d="M0 0h16v16H0z"/></clipPath></defs></svg>