<svg width="16" height="16" fill="none" xmlns="http://www.w3.org/2000/svg"><g clip-path="url('#clip0_621_72998')"><path d="M10.938 3.375c.53.531.932 1.13 1.203 1.797.27.677.409 1.364.414 2.062a5.586 5.586 0 0 1-.383 2.063A5.432 5.432 0 0 1 11 11.125a.182.182 0 0 0-.047.031c-.01.01-.015.021-.015.031-.01 0-.021.006-.032.016a.182.182 0 0 0-.031.047 5.432 5.432 0 0 1-1.828 1.172 5.586 5.586 0 0 1-2.063.383 5.624 5.624 0 0 1-2.062-.414 5.396 5.396 0 0 1-1.797-1.204A5.41 5.41 0 0 1 1.906 9.36 5.55 5.55 0 0 1 1.5 7.281c0-.708.135-1.4.406-2.078a5.215 5.215 0 0 1 1.219-1.828 5.215 5.215 0 0 1 1.828-1.219 5.55 5.55 0 0 1 2.078-.406 5.55 5.55 0 0 1 2.078.406c.677.271 1.287.677 1.829 1.219Zm1.562 8.313a7.043 7.043 0 0 0 1.547-4.758 7.102 7.102 0 0 0-.578-2.461A6.839 6.839 0 0 0 12 2.312 6.847 6.847 0 0 0 9.672.766 7.11 7.11 0 0 0 7.023.25a7.11 7.11 0 0 0-2.648.516 6.889 6.889 0 0 0-2.313 1.546A6.888 6.888 0 0 0 .516 4.626 7.11 7.11 0 0 0 0 7.273c0 .901.172 1.784.516 2.649.343.864.859 1.64 1.546 2.328a6.839 6.839 0 0 0 2.157 1.469 7.102 7.102 0 0 0 2.46.578 7.043 7.043 0 0 0 4.758-1.547l2.782 2.781a.723.723 0 0 0 .531.219.723.723 0 0 0 .531-.219A.723.723 0 0 0 15.5 15a.723.723 0 0 0-.219-.531L12.5 11.688Z" fill="#4F5794"/></g><defs><clipPath id="clip0_621_72998"><path fill="#fff" transform="matrix(1 0 0 -1 0 16)" d="M0 0h16v16H0z"/></clipPath></defs></svg>