<svg width="14" height="14" fill="none" xmlns="http://www.w3.org/2000/svg"><path d="M4.635 7.615c.036.046.08.085.13.116.05.032.102.062.157.09.045.018.098.033.157.047a.76.76 0 0 0 .349 0c.054-.014.11-.03.164-.048a.71.71 0 0 0 .157-.075.528.528 0 0 0 .13-.116.528.528 0 0 0 .116-.13.71.71 0 0 0 .075-.157c.019-.055.034-.11.048-.164a.731.731 0 0 0 0-.349 1.078 1.078 0 0 0-.048-.157 1.75 1.75 0 0 0-.089-.157.528.528 0 0 0-.116-.13 3.216 3.216 0 0 0-.574-.451 14.21 14.21 0 0 0-.84-.554l-.91-.554c-.3-.173-.551-.319-.752-.437-.046-.028-.089-.02-.13.02-.04.041-.048.084-.02.13.118.2.264.451.437.752l.554.91c.187.305.371.585.554.84.173.264.323.456.45.574ZM10.5 7c0 .72-.137 1.4-.41 2.037a5.29 5.29 0 0 1-1.128 1.675 5.291 5.291 0 0 1-1.675 1.128 5.115 5.115 0 0 1-2.037.41c-.72 0-1.4-.137-2.037-.41a5.291 5.291 0 0 1-1.675-1.128A5.291 5.291 0 0 1 .41 9.037 5.117 5.117 0 0 1 0 7a5.2 5.2 0 0 1 .396-2.01 5.334 5.334 0 0 1 1.135-1.709 1.88 1.88 0 0 1 .075-.048c.023-.013.048-.03.076-.047a.54.54 0 0 1 .246-.021.54.54 0 0 1 .082.02c.027.019.052.035.075.048l.075.048.048.075.048.076a.54.54 0 0 1 .02.246.54.54 0 0 1-.02.082 1.88 1.88 0 0 0-.048.075l-.048.075c-.21.2-.394.42-.554.656a4.261 4.261 0 0 0-.649 1.58A4.417 4.417 0 0 0 .875 7c0 .602.114 1.167.342 1.695a4.37 4.37 0 0 0 .936 1.402 4.37 4.37 0 0 0 1.402.936 4.236 4.236 0 0 0 1.695.342c.602 0 1.167-.114 1.695-.342a4.37 4.37 0 0 0 1.402-.936 4.37 4.37 0 0 0 .936-1.402A4.237 4.237 0 0 0 9.625 7c0-.565-.1-1.098-.3-1.6-.21-.51-.49-.959-.842-1.346a4.31 4.31 0 0 0-1.25-.95 4.215 4.215 0 0 0-1.545-.452v1.723c0 .055-.012.11-.035.164a.623.623 0 0 1-.089.15.623.623 0 0 1-.15.09.424.424 0 0 1-.328 0 .623.623 0 0 1-.15-.09.623.623 0 0 1-.09-.15.424.424 0 0 1-.034-.164V2.187c0-.054.012-.109.035-.164a.623.623 0 0 1 .089-.15.623.623 0 0 1 .15-.089.424.424 0 0 1 .164-.034c.72 0 1.4.137 2.037.41.638.274 1.196.65 1.675 1.128a5.29 5.29 0 0 1 1.128 1.675c.273.638.41 1.317.41 2.037Z" fill="#4F5794"/></svg>