<svg width="26" height="26" fill="none" xmlns="http://www.w3.org/2000/svg"><path d="M13.813 9.75c-.44 0-.822-.16-1.143-.482a1.562 1.562 0 0 1-.482-1.143c0-.44.16-.821.482-1.143a1.562 1.562 0 0 1 1.143-.482c.44 0 .82.16 1.142.482.322.322.482.703.482 1.143 0 .44-.16.821-.482 1.143a1.562 1.562 0 0 1-1.143.482Zm0 9.75c-.44 0-.822-.16-1.143-.482a1.562 1.562 0 0 1-.482-1.143c0-.44.16-.821.482-1.143a1.562 1.562 0 0 1 1.143-.482c.44 0 .82.16 1.142.482.322.322.482.703.482 1.143 0 .44-.16.821-.482 1.143a1.562 1.562 0 0 1-1.143.482Zm-4.876-4.875c-.44 0-.82-.16-1.142-.482A1.562 1.562 0 0 1 7.313 13c0-.44.16-.821.482-1.143a1.562 1.562 0 0 1 1.143-.482c.44 0 .82.16 1.142.482.322.322.482.703.482 1.143 0 .44-.16.821-.482 1.143a1.562 1.562 0 0 1-1.143.482ZM4.064 9.75c-.44 0-.821-.16-1.143-.482a1.562 1.562 0 0 1-.482-1.143c0-.44.16-.821.482-1.143A1.562 1.562 0 0 1 4.063 6.5c.44 0 .82.16 1.142.482.322.322.482.703.482 1.143 0 .44-.16.821-.482 1.143a1.562 1.562 0 0 1-1.143.482Zm0 9.75c-.44 0-.821-.16-1.143-.482a1.562 1.562 0 0 1-.482-1.143c0-.44.16-.821.482-1.143a1.562 1.562 0 0 1 1.143-.482c.44 0 .82.16 1.142.482.322.322.482.703.482 1.143 0 .44-.16.821-.482 1.143a1.562 1.562 0 0 1-1.143.482Zm11.78-15.438H2.032c-.27 0-.529.051-.774.153-.246.101-.47.245-.673.431-.186.204-.33.428-.432.673A2.006 2.006 0 0 0 0 6.094v13.812c0 .559.199 1.037.597 1.435.397.398.876.596 1.434.596h13.813c.558 0 1.037-.198 1.434-.596.398-.398.597-.876.597-1.435V6.094c0-.559-.199-1.037-.597-1.435a1.956 1.956 0 0 0-1.434-.596Z" fill="#4F5794"/></svg>