<svg width="26" height="26" fill="none" xmlns="http://www.w3.org/2000/svg"><path d="M16.656 4.063c.339 0 .627.118.864.355.236.237.355.525.355.863V20.72c0 .338-.119.626-.355.863a1.175 1.175 0 0 1-.864.355H1.22c-.339 0-.627-.118-.864-.355A1.175 1.175 0 0 1 0 20.719V5.28c0-.338.118-.626.355-.863s.525-.356.864-.356h15.437ZM1.625 8.938H16.25v-3.25H1.625v3.25Zm11.629 9.75v-6.526h-1.346l-1.701 1.168v1.27l1.6-1.118h.101v5.206h1.346Zm-6.729.177c.745 0 1.359-.186 1.841-.558.483-.373.724-.847.724-1.422 0-.44-.127-.8-.381-1.08-.254-.279-.61-.435-1.066-.47v-.1c.372-.068.664-.238.876-.508a1.52 1.52 0 0 0 .317-.965c0-.525-.216-.952-.648-1.283-.431-.33-.977-.495-1.637-.495-.711 0-1.282.182-1.714.546-.432.364-.656.86-.673 1.486h1.244a.921.921 0 0 1 .33-.686c.203-.17.457-.254.762-.254.322 0 .576.08.762.241.186.161.279.368.279.623 0 .27-.093.486-.28.647-.185.16-.43.241-.736.241h-.812v1.016h.812c.373 0 .665.084.876.254.212.169.318.397.318.685a.83.83 0 0 1-.33.673c-.22.178-.5.267-.838.267-.356 0-.64-.08-.85-.242a.944.944 0 0 1-.369-.672H4.037c.034.626.275 1.125.724 1.498.448.372 1.037.558 1.764.558Z" fill="#4F5794"/></svg>