<svg width="26" height="26" fill="none" xmlns="http://www.w3.org/2000/svg"><path d="M15.742 12.594a.48.48 0 0 1-.025.152.317.317 0 0 1-.076.127.442.442 0 0 1-.14.102.373.373 0 0 1-.14.025h-2.996a.373.373 0 0 1-.14-.025.442.442 0 0 1-.14-.102.318.318 0 0 1-.075-.127.477.477 0 0 1-.026-.152V7.719c0-.051.009-.102.026-.153a.319.319 0 0 1 .076-.127.443.443 0 0 1 .14-.101.373.373 0 0 1 .14-.026h2.995c.051 0 .098.009.14.026.042.017.089.05.14.101.034.034.059.077.076.127a.48.48 0 0 1 .025.153v4.875Zm-.38 2.844H4.874a.48.48 0 0 1-.152-.026.245.245 0 0 1-.127-.102.318.318 0 0 1-.076-.126.48.48 0 0 1 0-.305.318.318 0 0 1 .076-.127.245.245 0 0 1 .127-.102.48.48 0 0 1 .152-.025h10.486c.051 0 .098.008.14.025.042.017.089.051.14.102.034.034.059.076.076.127a.48.48 0 0 1 0 .305.317.317 0 0 1-.076.127.442.442 0 0 1-.14.101.373.373 0 0 1-.14.025Zm-1.499 2.437H4.875a.48.48 0 0 1-.152-.025.245.245 0 0 1-.127-.102.318.318 0 0 1-.076-.127.48.48 0 0 1 0-.305.318.318 0 0 1 .076-.127.245.245 0 0 1 .127-.101.48.48 0 0 1 .152-.026h8.988c.051 0 .098.009.14.026.042.017.08.05.114.101.051.034.085.077.102.127a.48.48 0 0 1 0 .305.245.245 0 0 1-.102.127.256.256 0 0 1-.114.102.373.373 0 0 1-.14.025Zm-8.988-5.688h5.23a.48.48 0 0 1 .153.026c.05.017.093.05.127.102.034.033.059.076.076.126a.478.478 0 0 1 0 .305.318.318 0 0 1-.076.127.245.245 0 0 1-.127.102.48.48 0 0 1-.152.025H4.874a.48.48 0 0 1-.152-.025.245.245 0 0 1-.127-.102.318.318 0 0 1-.076-.127.48.48 0 0 1 0-.305.318.318 0 0 1 .076-.127.245.245 0 0 1 .127-.101.48.48 0 0 1 .152-.025Zm0-2.437h5.23a.48.48 0 0 1 .153.025c.05.017.093.051.127.102.034.034.059.076.076.127a.477.477 0 0 1 0 .305.318.318 0 0 1-.076.127.245.245 0 0 1-.127.101.48.48 0 0 1-.152.025H4.874a.48.48 0 0 1-.152-.025.245.245 0 0 1-.127-.102.318.318 0 0 1-.076-.126.48.48 0 0 1 0-.305.319.319 0 0 1 .076-.127.245.245 0 0 1 .127-.102.48.48 0 0 1 .152-.025Zm0-2.438h5.23a.48.48 0 0 1 .153.026c.05.017.093.05.127.101.034.034.059.077.076.127a.477.477 0 0 1 0 .305.319.319 0 0 1-.076.127.245.245 0 0 1-.127.102.48.48 0 0 1-.152.025H4.874a.48.48 0 0 1-.152-.025.245.245 0 0 1-.127-.102.319.319 0 0 1-.076-.127.48.48 0 0 1 0-.305.319.319 0 0 1 .076-.127.245.245 0 0 1 .127-.101.48.48 0 0 1 .152-.026Zm11.984-2.437H3.352c-.136 0-.276.03-.42.089a.96.96 0 0 0-.368.266c-.101.119-.182.25-.24.394-.06.144-.09.3-.09.47v13a.48.48 0 0 1-.025.152.318.318 0 0 1-.076.127.245.245 0 0 1-.127.102.48.48 0 0 1-.152.025.373.373 0 0 1-.14-.025.256.256 0 0 1-.114-.102.318.318 0 0 1-.077-.127.48.48 0 0 1-.025-.152V6.906a.338.338 0 0 0-.038-.152.483.483 0 0 0-.089-.127.256.256 0 0 0-.114-.102.373.373 0 0 0-.14-.025c-.152 0-.296.03-.431.089a.984.984 0 0 0-.356.266c-.118.119-.203.25-.254.394-.05.144-.076.3-.076.47v11.375c0 .27.047.529.14.774.093.246.224.47.393.673.186.186.394.33.622.432.229.101.462.152.699.152h15.005c.153 0 .297-.03.432-.089.135-.06.262-.148.38-.267a1.23 1.23 0 0 0 .23-.393c.05-.144.076-.3.076-.47V6.094c0-.17-.026-.326-.077-.47a1.047 1.047 0 0 0-.253-.394.985.985 0 0 0-.356-.266 1.065 1.065 0 0 0-.432-.089Z" fill="#4F5794"/></svg>