<svg width="26" height="26" fill="none" xmlns="http://www.w3.org/2000/svg"><path d="M17.875 13.813a.787.787 0 0 1-.305-.064 1.159 1.159 0 0 1-.279-.165 1.159 1.159 0 0 1-.165-.28.787.787 0 0 1-.064-.304c0-.102.022-.203.064-.305.042-.101.097-.194.165-.279.085-.068.178-.123.28-.165a.787.787 0 0 1 .304-.063c.102 0 .203.02.305.063.101.042.194.097.279.165.068.085.123.178.165.28a.787.787 0 0 1 .064.304.787.787 0 0 1-.064.305 1.159 1.159 0 0 1-.165.279 1.159 1.159 0 0 1-.28.165.787.787 0 0 1-.304.063Zm-2.438-2.438a.787.787 0 0 1-.304-.063 1.157 1.157 0 0 1-.28-.165 1.157 1.157 0 0 1-.165-.28.787.787 0 0 1-.063-.305c0-.101.021-.203.063-.304.043-.102.098-.195.165-.28.085-.067.178-.122.28-.165a.787.787 0 0 1 .305-.063c.101 0 .203.021.304.063.102.043.195.098.28.166.067.084.122.177.165.279a.787.787 0 0 1 .063.305.787.787 0 0 1-.064.304 1.157 1.157 0 0 1-.165.28 1.157 1.157 0 0 1-.279.165.787.787 0 0 1-.305.063Zm.026 4.875a.957.957 0 0 1-.305-.05.712.712 0 0 1-.28-.178 1.048 1.048 0 0 1-.177-.242.652.652 0 0 1-.076-.317c0-.102.017-.203.05-.305a.712.712 0 0 1 .178-.28c.068-.067.149-.126.242-.177a.652.652 0 0 1 .317-.076.957.957 0 0 1 .584.203c.068.085.127.174.178.267.05.093.076.199.076.317a.957.957 0 0 1-.203.584 1.831 1.831 0 0 1-.267.178.652.652 0 0 1-.317.076ZM13 13.812a.787.787 0 0 1-.305-.063 1.159 1.159 0 0 1-.279-.165 1.159 1.159 0 0 1-.165-.28.787.787 0 0 1-.063-.304c0-.102.02-.203.063-.305.042-.101.097-.194.165-.279.085-.068.178-.123.28-.165a.787.787 0 0 1 .304-.063c.102 0 .203.02.305.063.101.042.194.097.279.165.068.085.123.178.165.28a.787.787 0 0 1 .063.304.787.787 0 0 1-.063.305 1.159 1.159 0 0 1-.165.279 1.159 1.159 0 0 1-.28.165.787.787 0 0 1-.304.063Zm-5.688 0H6.5v.813a.787.787 0 0 1-.063.305 1.16 1.16 0 0 1-.166.279 1.156 1.156 0 0 1-.279.165.787.787 0 0 1-.304.063.787.787 0 0 1-.305-.063 1.156 1.156 0 0 1-.28-.165 1.16 1.16 0 0 1-.165-.28.787.787 0 0 1-.063-.304v-.813h-.813a.787.787 0 0 1-.304-.063 1.156 1.156 0 0 1-.28-.165 1.16 1.16 0 0 1-.165-.28A.787.787 0 0 1 3.25 13c0-.102.021-.203.063-.305a1.16 1.16 0 0 1 .166-.279c.084-.068.177-.123.279-.165a.787.787 0 0 1 .304-.063h.813v-.813c0-.102.021-.203.063-.305a1.16 1.16 0 0 1 .166-.279c.084-.068.177-.123.279-.165a.787.787 0 0 1 .304-.063c.102 0 .204.02.305.063.102.042.195.097.28.165.067.085.122.178.165.28a.787.787 0 0 1 .063.304v.813h.813c.101 0 .203.02.304.063.102.042.195.097.28.165.067.085.122.178.165.28a.787.787 0 0 1 .063.304.787.787 0 0 1-.063.305 1.16 1.16 0 0 1-.166.279 1.156 1.156 0 0 1-.279.165.787.787 0 0 1-.304.063Zm8.125-6.5h-9.75c-.778 0-1.514.153-2.208.458-.694.287-1.3.69-1.816 1.206A5.539 5.539 0 0 0 .457 10.79 5.435 5.435 0 0 0 0 13c0 .779.152 1.515.457 2.209.288.694.69 1.3 1.206 1.815A5.54 5.54 0 0 0 3.48 18.23c.694.305 1.43.457 2.208.457.813 0 1.41-.148 1.79-.444.381-.296.699-.605.953-.927.237-.287.499-.537.787-.749.288-.211.736-.317 1.345-.317.61 0 1.058.106 1.346.317.288.212.55.462.787.75.254.321.572.63.953.926.38.296.977.445 1.79.445.778 0 1.514-.153 2.208-.457a5.54 5.54 0 0 0 1.816-1.207 5.54 5.54 0 0 0 1.206-1.815c.305-.694.457-1.43.457-2.209 0-.779-.152-1.515-.457-2.209a5.54 5.54 0 0 0-1.206-1.815 5.539 5.539 0 0 0-1.816-1.206 5.435 5.435 0 0 0-2.209-.457Z" fill="#4F5794"/></svg>