<svg width="19" height="19" fill="none" xmlns="http://www.w3.org/2000/svg"><g clip-path="url('#clip0_621_74354')"><path d="M11.74 15.524H4.252v1.512h7.488v-1.512ZM14.746 2.78h-2.46a1.54 1.54 0 0 0-.537-.545 1.399 1.399 0 0 0-.747-.21H4.99c-.27 0-.518.07-.747.21a1.54 1.54 0 0 0-.536.545h-2.46A.73.73 0 0 0 .71 3a.73.73 0 0 0-.22.536v2.988c0 .117.027.229.08.334.052.106.12.194.201.264l3.71 2.953c.328.422.732.776 1.212 1.063.48.287.996.478 1.547.572v.826H5.746a.73.73 0 0 0-.536.22.71.71 0 0 0-.22.518v1.512h6.012v-1.512a.71.71 0 0 0-.22-.518.73.73 0 0 0-.536-.22H8.752v-.826a4.356 4.356 0 0 0 1.538-.572 4.635 4.635 0 0 0 1.222-1.063l3.709-2.953a.834.834 0 0 0 .202-.264.737.737 0 0 0 .079-.334V3.536a.73.73 0 0 0-.22-.536.73.73 0 0 0-.536-.22ZM2.002 6.173V4.274h1.494v3.094L2.002 6.173Zm11.988 0-1.494 1.195V4.274h1.494v1.899Z" fill="#9309E2"/></g><defs><clipPath id="clip0_621_74354"><path fill="#fff" transform="matrix(1 0 0 -1 .49 18.53)" d="M0 0h18v18H0z"/></clipPath></defs></svg>