<svg width="21" height="20" fill="none" xmlns="http://www.w3.org/2000/svg"><g clip-path="url('#clip0_621_72511')"><path d="M9.308 19.258c-1.276 0-2.48-.241-3.614-.723a9.693 9.693 0 0 1-2.94-1.992 9.154 9.154 0 0 1-1.982-2.95A8.996 8.996 0 0 1 .05 10c0-1.276.24-2.48.722-3.613a9.326 9.326 0 0 1 1.983-2.94c.84-.84 1.82-1.5 2.94-1.982A9.136 9.136 0 0 1 9.307.742c1.276 0 2.474.241 3.593.723a9.153 9.153 0 0 1 2.95 1.982 9.693 9.693 0 0 1 1.992 2.94A9.137 9.137 0 0 1 18.565 10c0 1.276-.24 2.474-.722 3.594a9.505 9.505 0 0 1-1.992 2.949 9.504 9.504 0 0 1-2.95 1.992 8.997 8.997 0 0 1-3.593.723Zm1.054-5.41h1.563l2.422-7.246h-1.992l-1.231 3.71-1.055-3.71H8.546l-1.055 3.71-1.23-3.71H4.269l2.421 7.246h1.563l1.055-3.496 1.054 3.496Z" fill="#fff"/></g><defs><clipPath id="clip0_621_72511"><path fill="#fff" transform="matrix(1 0 0 -1 .05 20)" d="M0 0h20v20H0z"/></clipPath></defs></svg>