<svg width="26" height="26" fill="none" xmlns="http://www.w3.org/2000/svg"><path d="M12.035 25.035c-1.659 0-3.224-.313-4.697-.94a12.6 12.6 0 0 1-3.821-2.59 11.9 11.9 0 0 1-2.578-3.833C.313 16.216 0 14.659 0 13c0-1.659.313-3.225.94-4.697A12.124 12.124 0 0 1 3.516 4.48a12.124 12.124 0 0 1 3.82-2.577 11.877 11.877 0 0 1 4.698-.94c1.659 0 3.216.314 4.672.94a11.898 11.898 0 0 1 3.834 2.577 12.602 12.602 0 0 1 2.59 3.822c.626 1.472.94 3.038.94 4.697 0 1.659-.314 3.216-.94 4.672a12.358 12.358 0 0 1-2.59 3.834 12.354 12.354 0 0 1-3.834 2.59c-1.456.626-3.013.94-4.672.94Zm1.371-7.033h2.031l3.149-9.42h-2.59l-1.6 4.824-1.37-4.824h-1.981l-1.371 4.824-1.6-4.824h-2.59l3.149 9.42h2.031l1.371-4.545 1.371 4.545Z" fill="#12EEB1"/></svg>