<svg width="26" height="26" fill="none" xmlns="http://www.w3.org/2000/svg"><path d="M7.313 4.875a2.35 2.35 0 0 1 1.726.71c.474.475.711 1.05.711 1.728H4.875c0-.678.237-1.253.71-1.727a2.35 2.35 0 0 1 1.728-.711Zm6.093 2.438h-2.031c0-1.118-.398-2.074-1.193-2.87-.796-.795-1.752-1.193-2.87-1.193-1.117 0-2.073.398-2.869 1.193-.795.796-1.193 1.752-1.193 2.87H1.219c-.339 0-.627.118-.864.355A1.175 1.175 0 0 0 0 8.531v13c0 .339.118.627.355.864.237.236.525.355.864.355h12.187c.339 0 .627-.119.864-.355.237-.237.355-.525.355-.864v-13c0-.338-.118-.626-.355-.863a1.175 1.175 0 0 0-.864-.356Z" fill="#4F5794"/></svg>