<svg width="26" height="26" fill="none" xmlns="http://www.w3.org/2000/svg"><path d="M3.25 13a.921.921 0 0 0 .305-.05c.05-.035.097-.064.14-.09a3.59 3.59 0 0 0 .139-.088l3.25-3.276 2.336.99a.784.784 0 0 0 .482.05c.085.001.161-.02.229-.062.068-.043.135-.09.203-.14l3.555-3.58.457.432c.017.033.042.059.076.076l.101.05h.115c.042 0 .08-.008.114-.025a.169.169 0 0 0 .101-.038.251.251 0 0 0 .077-.089.114.114 0 0 0 .063-.076.494.494 0 0 1 .038-.102l.406-2.437v-.102a.226.226 0 0 0-.025-.101.157.157 0 0 0-.025-.09.191.191 0 0 0-.077-.063.191.191 0 0 0-.063-.076.156.156 0 0 0-.089-.025.225.225 0 0 0-.101-.026h-.102l-2.437.407a.497.497 0 0 1-.102.038.114.114 0 0 0-.076.063.252.252 0 0 0-.089.076.169.169 0 0 0-.038.102.252.252 0 0 0-.025.114v.115l.05.101c.017.034.043.06.077.076l.431.457-3.174 3.174-2.336-.99a.784.784 0 0 0-.482-.05.422.422 0 0 0-.229.063 2.897 2.897 0 0 0-.203.14l-3.656 3.655c-.05.068-.093.136-.127.204a.906.906 0 0 0-.089.457c.009.084.021.16.038.228a.765.765 0 0 0 .127.216c.051.06.11.114.178.165.068.034.14.064.216.089A.757.757 0 0 0 3.25 13Zm13.406-2.438H14.22c-.339 0-.627.119-.864.356a1.175 1.175 0 0 0-.355.863v8.938c0 .338.118.626.355.863s.525.355.864.355h2.437c.339 0 .627-.118.864-.355.236-.237.355-.525.355-.863V11.78c0-.338-.119-.626-.355-.863a1.175 1.175 0 0 0-.864-.355Zm-6.5 3.25H7.72c-.339 0-.627.119-.864.356a1.175 1.175 0 0 0-.355.863v5.688c0 .338.118.626.355.863s.525.355.864.355h2.437c.339 0 .627-.118.864-.355s.355-.525.355-.863V15.03c0-.338-.118-.626-.355-.863a1.175 1.175 0 0 0-.864-.355Zm-5.281 4.47v2.437c0 .338-.118.626-.355.863a1.175 1.175 0 0 1-.864.355H1.22c-.339 0-.627-.118-.864-.355A1.175 1.175 0 0 1 0 20.719V18.28c0-.338.118-.626.355-.863s.525-.355.864-.355h2.437c.339 0 .627.118.864.355s.355.525.355.863Z" fill="#4F5794"/></svg>