<svg width="26" height="26" fill="none" xmlns="http://www.w3.org/2000/svg"><path d="M17.875 13c0 .457-.309.859-.927 1.206-.618.347-1.587.8-2.907 1.359-1.236.507-2.226.884-2.97 1.13-.745.245-1.456.367-2.133.367-.678 0-1.389-.122-2.133-.368-.745-.245-1.735-.622-2.971-1.13-1.32-.558-2.29-1.01-2.907-1.358C.309 13.86 0 13.457 0 13c0-.355.178-.669.533-.94.356-.27.906-.575 1.65-.914a1.32 1.32 0 0 1 .318-.063.723.723 0 0 1 .343.063l.685.28c1.27.541 2.302.94 3.098 1.193.796.254 1.566.381 2.31.381.745 0 1.516-.127 2.311-.38.796-.255 1.828-.653 3.098-1.194l.685-.28a.723.723 0 0 1 .343-.063c.11.008.216.03.317.063.745.339 1.295.644 1.65.914.356.271.534.585.534.94Zm0 4.875c0 .457-.309.859-.927 1.206-.618.347-1.587.8-2.907 1.358-1.236.508-2.226.885-2.97 1.13-.745.246-1.456.369-2.133.369-.678 0-1.389-.123-2.133-.369-.745-.245-1.735-.622-2.971-1.13-1.32-.558-2.29-1.01-2.907-1.358C.309 18.734 0 18.332 0 17.875c0-.355.178-.669.533-.94.356-.27.906-.575 1.65-.913a1.32 1.32 0 0 1 .318-.064.723.723 0 0 1 .343.063l.685.28c1.27.541 2.302.94 3.098 1.193.796.254 1.566.381 2.31.381.745 0 1.516-.127 2.311-.38.796-.255 1.828-.653 3.098-1.194l.685-.28a.723.723 0 0 1 .343-.063c.11.008.216.03.317.063.745.339 1.295.644 1.65.915.356.27.534.584.534.939ZM4.469 7.059a52.272 52.272 0 0 1 2.73-1.041c.65-.22 1.23-.33 1.739-.33.507 0 1.087.11 1.739.33.652.22 1.561.567 2.73 1.04.355.153.761.326 1.218.521.457.195.846.377 1.168.546-.322.17-.711.351-1.168.546l-1.219.52c-1.117.474-2.01.821-2.679 1.041-.668.22-1.265.33-1.79.33-.524 0-1.12-.11-1.79-.33-.668-.22-1.561-.567-2.678-1.04L3.25 8.67a16.046 16.046 0 0 1-1.168-.546c.322-.17.711-.351 1.168-.546l1.219-.52Zm-.635 3.63c1.236.508 2.226.885 2.97 1.13.745.246 1.456.368 2.133.368.678 0 1.389-.122 2.133-.368.745-.245 1.735-.622 2.971-1.13 1.439-.609 2.438-1.079 2.996-1.409.559-.33.838-.715.838-1.155 0-.44-.28-.825-.838-1.155-.558-.33-1.557-.8-2.996-1.41-1.27-.524-2.277-.905-3.021-1.142-.745-.237-1.44-.356-2.082-.356-.644 0-1.338.119-2.083.356-.744.237-1.751.618-3.021 1.143C2.395 6.17 1.396 6.64.838 6.97.279 7.3 0 7.685 0 8.125c0 .44.28.825.838 1.155.558.33 1.557.8 2.996 1.41Z" fill="#4F5794"/></svg>