<svg width="14" height="15" fill="none" xmlns="http://www.w3.org/2000/svg"><path d="M10.363 7.294c.091.118.137.25.137.396a.635.635 0 0 1-.137.396l-1.025 1.3-.192 1.64a.63.63 0 0 1-.061.205.919.919 0 0 1-.116.178.921.921 0 0 1-.178.116.63.63 0 0 1-.205.061l-1.64.192-1.3 1.025a.564.564 0 0 1-.184.103.665.665 0 0 1-.424 0 .564.564 0 0 1-.184-.103l-1.3-1.025-1.64-.192a.847.847 0 0 1-.383-.178.919.919 0 0 1-.116-.177.63.63 0 0 1-.061-.205l-.192-1.64-1.025-1.3a.565.565 0 0 1-.103-.184.666.666 0 0 1 0-.424.565.565 0 0 1 .103-.184l1.025-1.3.192-1.64a.706.706 0 0 1 .19-.383.706.706 0 0 1 .37-.178l1.64-.19 1.3-1.026a.565.565 0 0 1 .184-.103.666.666 0 0 1 .424 0c.068.023.13.057.184.103l1.3 1.025 1.64.192a.64.64 0 0 1 .56.574l.192 1.627 1.025 1.299ZM7.37 6.172a.43.43 0 0 0 .055-.157.36.36 0 0 0-.014-.17.341.341 0 0 0-.191-.26.425.425 0 0 0-.15-.055.495.495 0 0 0-.165 0 .42.42 0 0 0-.273.178l-1.9 3.035-.917-.93a.507.507 0 0 0-.143-.082.498.498 0 0 0-.171-.027.376.376 0 0 0-.157.034.68.68 0 0 0-.144.089.68.68 0 0 0-.089.143.376.376 0 0 0-.034.157.516.516 0 0 0 .11.315l1.326 1.312a.448.448 0 0 0 .068.055c.027.018.06.032.096.041a.727.727 0 0 0 .191.027.425.425 0 0 0 .178-.068.488.488 0 0 0 .137-.137l2.187-3.5Z" fill="#00BAFF"/></svg>