<svg width="28" height="26" fill="none" xmlns="http://www.w3.org/2000/svg"><path d="M19.985 9.09v-4.9c.423-.17.82-.267 1.193-.293.373-.025.711.039 1.016.19.423.187.749.488.977.902.229.415.343.809.343 1.18 0 .695-.283 1.237-.85 1.626-.568.39-1.46.82-2.68 1.295ZM2.338 6.17c0-.372.11-.766.33-1.18.22-.415.55-.716.99-.902a1.936 1.936 0 0 1 1.016-.19c.373.025.77.122 1.194.291v4.9c-1.22-.473-2.112-.905-2.679-1.294-.567-.39-.85-.931-.85-1.625ZM23.21 2.03c-.338-.152-.778-.275-1.32-.368-.541-.093-1.176-.046-1.904.14v-.737a.505.505 0 0 0-.05-.228.624.624 0 0 0-.317-.305.533.533 0 0 0-.217-.05H6.45a.533.533 0 0 0-.215.05.624.624 0 0 0-.318.305.504.504 0 0 0-.05.228v.737C5.14 1.617 4.5 1.57 3.95 1.663s-.986.216-1.308.368C1.73 2.454 1.06 3.068.637 3.872.214 4.676.002 5.442.002 6.17c0 1.557.572 2.687 1.714 3.39a20.677 20.677 0 0 0 3.44 1.713c.187.068.369.136.547.204.177.067.35.143.52.228a6.94 6.94 0 0 0 1.65 2.64c.373.373.788.699 1.245.978.457.28.94.512 1.447.698.355.119.643.326.863.623.22.296.33.622.33.977v3.58c0 .237-.025.41-.076.52a.528.528 0 0 1-.203.242L8.661 23.79a1.012 1.012 0 0 0-.38.457.959.959 0 0 0-.052.305c0 .101.008.203.025.304.034.085.08.17.14.254.06.085.131.161.216.229.085.05.178.093.28.127.1.034.202.05.304.05h7.465a.957.957 0 0 0 .304-.05c.102-.034.195-.076.28-.127.084-.068.156-.144.216-.229a.677.677 0 0 0 .114-.254.96.96 0 0 0 0-.609 1.014 1.014 0 0 0-.381-.457l-2.844-1.828a.396.396 0 0 1-.101-.076.318.318 0 0 1-.077-.127 1.002 1.002 0 0 1-.05-.127.419.419 0 0 1-.026-.127V17.62c0-.355.11-.681.33-.977.22-.297.5-.504.838-.622a7.494 7.494 0 0 0 2.717-1.676 6.94 6.94 0 0 0 1.65-2.64c.17-.086.343-.162.52-.23.179-.067.36-.135.547-.203a20.675 20.675 0 0 0 3.44-1.713c1.143-.703 1.714-1.833 1.714-3.39 0-.728-.212-1.494-.635-2.298-.423-.804-1.091-1.418-2.006-1.84Z" fill="#4F5794"/></svg>