<svg width="18" height="18" fill="none" xmlns="http://www.w3.org/2000/svg"><path d="M8.332 17.332a8.222 8.222 0 0 1-3.252-.65 8.723 8.723 0 0 1-2.645-1.793A8.238 8.238 0 0 1 .65 12.234 8.096 8.096 0 0 1 0 9c0-1.148.217-2.232.65-3.252a8.393 8.393 0 0 1 1.785-2.645A8.394 8.394 0 0 1 5.08 1.318a8.222 8.222 0 0 1 3.252-.65c1.148 0 2.227.217 3.234.65a8.238 8.238 0 0 1 2.655 1.785 8.723 8.723 0 0 1 1.793 2.645c.433 1.02.65 2.104.65 3.252a8.096 8.096 0 0 1-.65 3.234 8.554 8.554 0 0 1-1.793 2.655 8.553 8.553 0 0 1-2.655 1.793 8.096 8.096 0 0 1-3.234.65Zm.95-4.87h1.405l2.18-6.52h-1.793l-1.107 3.34-.95-3.34h-1.37l-.95 3.34-1.107-3.34H3.797l2.18 6.52h1.406l.949-3.146.95 3.147Z" fill="#B4BAE9"/></svg>