<svg width="26" height="26" fill="none" xmlns="http://www.w3.org/2000/svg"><g clip-path="url('#clip0_632_80446')"><path d="M13 0c-.88 0-1.71.17-2.488.508a6.514 6.514 0 0 0-2.032 1.37A6.514 6.514 0 0 0 7.11 3.91a6.172 6.172 0 0 0-.508 2.488c0 .88.169 1.71.507 2.489a6.515 6.515 0 0 0 1.371 2.031 6.515 6.515 0 0 0 2.032 1.371 6.174 6.174 0 0 0 2.488.508c.88 0 1.71-.17 2.488-.508a6.515 6.515 0 0 0 2.032-1.371 6.513 6.513 0 0 0 1.37-2.031 6.172 6.172 0 0 0 .508-2.489c0-.88-.169-1.71-.507-2.488A6.512 6.512 0 0 0 17.52 1.88 6.514 6.514 0 0 0 15.488.508 6.173 6.173 0 0 0 13 0Zm-2.158 5.332 1.625 1.6 2.691-2.692 1.067 1.092-3.758 3.758-2.692-2.692 1.067-1.066ZM3.834 21.049c-.322 0-.635-.034-.94-.102a3.733 3.733 0 0 1-.863-.304L0 21.379V26h7.643v-4.621l-2.032-.736c-.27.135-.554.237-.85.304a4.148 4.148 0 0 1-.927.102Zm9.166 0c-.322 0-.635-.034-.94-.102a3.734 3.734 0 0 1-.863-.304l-2.031.736V26h7.668v-4.621l-2.031-.736c-.271.135-.559.237-.864.304a4.319 4.319 0 0 1-.939.102Zm10.969-.406c-.271.135-.559.237-.864.304a4.319 4.319 0 0 1-1.866 0 3.776 3.776 0 0 1-.85-.304l-2.032.736V26H26v-4.621l-2.031-.736Zm-19.17-1.295a2.468 2.468 0 0 0 1.396-1.384c.271-.652.271-1.308 0-1.968a2.422 2.422 0 0 0-1.383-1.384 2.521 2.521 0 0 0-1.968.013c-.643.27-1.1.732-1.371 1.384-.271.651-.271 1.299 0 1.942.27.66.732 1.126 1.383 1.397.652.27 1.3.27 1.943 0Zm9.547-.203a2.45 2.45 0 0 0 1.155-1.587 2.427 2.427 0 0 0-.317-1.917 2.45 2.45 0 0 0-1.587-1.156 2.498 2.498 0 0 0-1.943.318c-.592.372-.969.901-1.13 1.587a2.499 2.499 0 0 0 .318 1.942c.372.592.901.97 1.587 1.13.685.16 1.324.055 1.917-.317Zm9.623-.356c.508-.508.761-1.113.761-1.815 0-.703-.253-1.308-.761-1.816-.491-.49-1.092-.736-1.803-.736-.71 0-1.312.245-1.803.736a2.522 2.522 0 0 0-.736 1.816c0 .702.245 1.307.736 1.815.491.49 1.092.736 1.803.736.711 0 1.312-.245 1.803-.736Z" fill="#4F5794"/></g><defs><clipPath id="clip0_632_80446"><path fill="#fff" transform="matrix(1 0 0 -1 0 26)" d="M0 0h26v26H0z"/></clipPath></defs></svg>