<svg width="21" height="20" fill="none" xmlns="http://www.w3.org/2000/svg"><g clip-path="url('#clip0_621_72543')"><path d="M9.568 19.258c-1.276 0-2.48-.241-3.613-.723a9.693 9.693 0 0 1-2.94-1.992 9.154 9.154 0 0 1-1.982-2.95A8.996 8.996 0 0 1 .31 10c0-1.276.24-2.48.723-3.613a9.326 9.326 0 0 1 1.982-2.94c.84-.84 1.82-1.5 2.94-1.982A9.136 9.136 0 0 1 9.568.742c1.276 0 2.474.241 3.594.723a9.153 9.153 0 0 1 2.949 1.982 9.692 9.692 0 0 1 1.992 2.94A9.135 9.135 0 0 1 18.826 10c0 1.276-.241 2.474-.723 3.594a9.504 9.504 0 0 1-1.992 2.949 9.504 9.504 0 0 1-2.95 1.992 8.997 8.997 0 0 1-3.593.723Zm1.055-5.41h1.562l2.422-7.246h-1.992l-1.23 3.71-1.055-3.71H8.806l-1.055 3.71-1.23-3.71H4.529l2.422 7.246h1.562l1.055-3.496 1.055 3.496Z" fill="#fff"/></g><defs><clipPath id="clip0_621_72543"><path fill="#fff" transform="matrix(1 0 0 -1 .31 20)" d="M0 0h20v20H0z"/></clipPath></defs></svg>