<svg width="19" height="18" fill="none" xmlns="http://www.w3.org/2000/svg"><g clip-path="url('#clip0_621_74470')"><path d="M.61 3.744c0-.41.146-.762.44-1.055.292-.293.644-.439 1.054-.439h10.512c.41 0 .761.146 1.054.44.293.292.44.644.44 1.054v10.512a1.496 1.496 0 0 1-.44 1.055 1.493 1.493 0 0 1-1.054.439H2.104a1.493 1.493 0 0 1-1.055-.44 1.495 1.495 0 0 1-.44-1.054V3.744ZM3.124 13.5h8.613a4.686 4.686 0 0 0-.826-.94 5.514 5.514 0 0 0-1.037-.712c-.375-.2-.771-.349-1.187-.449a5.38 5.38 0 0 0-1.257-.149c-.422 0-.838.05-1.248.15-.41.099-.803.248-1.178.448-.375.199-.72.436-1.037.712a5.174 5.174 0 0 0-.843.94ZM7.36 9.756c.176 0 .348-.018.518-.053.17-.035.331-.088.484-.158.164-.059.316-.138.457-.237.14-.1.275-.208.404-.326.117-.117.223-.249.317-.395.093-.147.175-.302.246-.466.07-.152.12-.313.15-.483a3.046 3.046 0 0 0 0-1.02 2.23 2.23 0 0 0-.15-.5 3.733 3.733 0 0 0-.246-.45 2.342 2.342 0 0 0-.317-.395 2.657 2.657 0 0 0-.861-.58 3.087 3.087 0 0 0-.484-.14 2.594 2.594 0 0 0-1.53.15 2.628 2.628 0 0 0-.851.57c-.247.247-.434.53-.563.853a2.697 2.697 0 0 0 0 2.004c.129.322.316.606.563.852a2.628 2.628 0 0 0 1.863.774Z" fill="#B4BAE9"/></g><defs><clipPath id="clip0_621_74470"><path fill="#fff" transform="matrix(1 0 0 -1 .61 18)" d="M0 0h18v18H0z"/></clipPath></defs></svg>