<svg width="26" height="26" fill="none" xmlns="http://www.w3.org/2000/svg"><path d="M14.904 5.688h-1.802a.691.691 0 0 0-.19.025.243.243 0 0 0-.14.101.245.245 0 0 0-.102.127.48.48 0 0 0-.025.153v4.875a.31.31 0 0 1-.026.114c-.017.042-.034.08-.05.114a.96.96 0 0 1-.102.09.665.665 0 0 1-.102.063.28.28 0 0 0-.089.012.28.28 0 0 1-.088.013.28.28 0 0 1-.09-.013.28.28 0 0 0-.088-.012.426.426 0 0 0-.064-.051.844.844 0 0 0-.089-.051l-1.472-1.32-1.498 1.32a.16.16 0 0 1-.09.076 2.542 2.542 0 0 1-.139.051h-.127a.283.283 0 0 1-.127-.025 1.709 1.709 0 0 1-.114-.064.224.224 0 0 1-.089-.089 1.526 1.526 0 0 1-.05-.114.312.312 0 0 1-.026-.114V6.094a.338.338 0 0 0-.038-.153.483.483 0 0 0-.089-.127.4.4 0 0 0-.152-.101.563.563 0 0 0-.178-.026H2.26a.563.563 0 0 1-.178-.025.4.4 0 0 1-.152-.101.483.483 0 0 1-.09-.127.338.338 0 0 1-.037-.153c0-.05.012-.101.038-.152a.483.483 0 0 1 .089-.127.4.4 0 0 1 .152-.102.563.563 0 0 1 .178-.025h11.73a.563.563 0 0 0 .178-.025.4.4 0 0 0 .152-.102.482.482 0 0 0 .09-.127.338.338 0 0 0 .037-.152c0-.17-.034-.326-.101-.47a1.207 1.207 0 0 0-.305-.394 1.127 1.127 0 0 0-.432-.266 1.529 1.529 0 0 0-.507-.089H2.26a2.438 2.438 0 0 0-1.6.584 2.462 2.462 0 0 0-.482.673A1.76 1.76 0 0 0 0 5.28v16.25c0 .17.034.326.102.47.067.144.169.275.304.393.119.119.263.208.432.267.17.06.338.089.508.089h13.558c.17 0 .339-.03.508-.089.17-.06.313-.148.432-.267.135-.118.237-.25.304-.393.068-.144.102-.3.102-.47V6.906c0-.169-.034-.326-.102-.47a1.207 1.207 0 0 0-.304-.393 1.127 1.127 0 0 0-.432-.267 1.528 1.528 0 0 0-.508-.088ZM7.668 19.5H4.062a.563.563 0 0 1-.177-.025.4.4 0 0 1-.153-.102.482.482 0 0 1-.088-.127.338.338 0 0 1-.039-.152c0-.051.013-.102.039-.153a.482.482 0 0 1 .088-.127.4.4 0 0 1 .153-.101.563.563 0 0 1 .178-.026h3.605c.068 0 .127.009.178.026a.4.4 0 0 1 .152.101.482.482 0 0 1 .089.127c.025.051.038.102.038.153 0 .05-.013.101-.038.152a.482.482 0 0 1-.089.127.4.4 0 0 1-.152.102.563.563 0 0 1-.178.025Zm1.803-1.625H4.062a.563.563 0 0 1-.177-.025.4.4 0 0 1-.153-.102.482.482 0 0 1-.088-.127.338.338 0 0 1-.039-.152c0-.051.013-.102.039-.153a.482.482 0 0 1 .088-.127.4.4 0 0 1 .153-.101.563.563 0 0 1 .178-.026H9.47c.067 0 .127.009.177.026a.4.4 0 0 1 .153.101.482.482 0 0 1 .089.127c.025.051.038.102.038.153 0 .05-.013.101-.038.152a.482.482 0 0 1-.09.127.4.4 0 0 1-.152.102.563.563 0 0 1-.177.025Z" fill="#4F5794"/></svg>