<svg width="26" height="26" fill="none" xmlns="http://www.w3.org/2000/svg"><g clip-path="url('#clip0_632_80421')"><path d="M15.514 9.75a.757.757 0 0 1-.457-.152L13 8.2l-2.057 1.397a.743.743 0 0 1-.457.152.743.743 0 0 1-.457-.152.708.708 0 0 1-.292-.369.897.897 0 0 1-.038-.495l.66-2.539-1.955-1.65a.91.91 0 0 1-.24-.419.806.806 0 0 1 .278-.85.827.827 0 0 1 .445-.178l2.463-.127.888-2.438a.752.752 0 0 1 .292-.38.798.798 0 0 1 .94 0 .752.752 0 0 1 .292.38l.888 2.438 2.463.127a.827.827 0 0 1 .711.558c.051.153.055.31.013.47a.91.91 0 0 1-.241.419l-1.955 1.65.66 2.54a.898.898 0 0 1-.038.494.707.707 0 0 1-.292.369.757.757 0 0 1-.457.152Zm9.623 8.658h-5.485v6.45c0 .203-.012.401-.038.596A3.452 3.452 0 0 1 19.5 26h5.637c.237 0 .44-.11.61-.33.168-.22.253-.491.253-.813v-5.306c0-.305-.085-.571-.254-.8-.17-.229-.372-.343-.61-.343Zm-18.79-3.25H.864c-.237 0-.44.115-.61.343-.168.229-.253.504-.253.825v8.506c0 .322.085.597.254.825.17.229.372.343.61.343H6.5a4.264 4.264 0 0 1-.114-.571 4.61 4.61 0 0 1-.038-.597v-9.674Zm11.249-3.25H8.404a.77.77 0 0 0-.584.241.803.803 0 0 0-.228.572v12.466c0 .22.076.411.228.572a.77.77 0 0 0 .584.241h9.192a.77.77 0 0 0 .584-.241.803.803 0 0 0 .228-.572V12.722c0-.22-.076-.41-.228-.572a.77.77 0 0 0-.584-.24Zm-3.784 8.938a.77.77 0 0 1-.24.584.803.803 0 0 1-.572.228.803.803 0 0 1-.571-.228.77.77 0 0 1-.242-.584v-3.174a1.075 1.075 0 0 1-.203-.28.78.78 0 0 1 .165-.901.78.78 0 0 1 .572-.241H13c.22 0 .41.08.571.241a.78.78 0 0 1 .242.572v3.783Z" fill="#4F5794"/></g><defs><clipPath id="clip0_632_80421"><path fill="#fff" transform="matrix(1 0 0 -1 0 26)" d="M0 0h26v26H0z"/></clipPath></defs></svg>