<svg width="3" height="8" fill="none" xmlns="http://www.w3.org/2000/svg"><path d="M2.5 6.196v.567c0 .04-.006.077-.02.11a.302.302 0 0 1-.139.156.21.21 0 0 1-.093.021H.252a.21.21 0 0 1-.093-.021.302.302 0 0 1-.14-.156.298.298 0 0 1-.019-.11v-.567c0-.037.006-.073.02-.107A.231.231 0 0 1 .076 6a.27.27 0 0 1 .082-.064.21.21 0 0 1 .093-.021H.5V4.212H.252A.21.21 0 0 1 .16 4.19.292.292 0 0 1 0 3.926v-.569c0-.04.006-.077.02-.11a.302.302 0 0 1 .139-.155.21.21 0 0 1 .093-.021H1.75a.21.21 0 0 1 .093.02.302.302 0 0 1 .14.156c.013.033.02.07.02.11v2.558h.246a.21.21 0 0 1 .093.021.302.302 0 0 1 .14.156c.013.032.019.067.019.104Zm-.499-5.11v.85c0 .04-.006.077-.02.11a.302.302 0 0 1-.139.155.21.21 0 0 1-.093.021H.75a.21.21 0 0 1-.093-.021.302.302 0 0 1-.14-.156.298.298 0 0 1-.02-.11v-.848c0-.04.007-.077.02-.11a.302.302 0 0 1 .14-.156A.21.21 0 0 1 .75.8h.998a.21.21 0 0 1 .093.021.302.302 0 0 1 .14.156c.013.033.02.07.02.11Z" fill="#E2E4F5"/></svg>