<svg width="96" height="96" fill="none" xmlns="http://www.w3.org/2000/svg"><g filter="url('#filter0_d_621_74413')"><g clip-path="url('#clip0_621_74413')"><rect x="24" y="22" width="48" height="48" rx="24" fill="#fff" fill-opacity=".01" shape-rendering="crispEdges"/><rect x="24" y="22" width="48" height="48" rx="24" fill="url('#paint0_linear_621_74413')"/><g clip-path="url('#clip1_621_74413')"><path d="M43.906 55.031a.656.656 0 0 1-.656-.656V51.75h-.984a2.957 2.957 0 0 1-2.953-2.953v-7.875a2.956 2.956 0 0 1 2.953-2.953h12.468a2.956 2.956 0 0 1 2.953 2.953v7.875a2.957 2.957 0 0 1-2.953 2.953H48.08l-3.752 3.13a.658.658 0 0 1-.42.151Z" fill="#fff" stroke="#000" stroke-width=".041"/></g></g></g><defs><clipPath id="clip0_621_74413"><rect x="24" y="22" width="48" height="48" rx="24" fill="#fff"/></clipPath><clipPath id="clip1_621_74413"><path fill="#fff" transform="translate(38 36)" d="M0 0h21v21H0z"/></clipPath><linearGradient id="paint0_linear_621_74413" x1="24" y1="22" x2="75.107" y2="66.426" gradientUnits="userSpaceOnUse"><stop stop-color="#43106E" stop-opacity=".75"/><stop offset="1" stop-color="#43106E"/></linearGradient><filter id="filter0_d_621_74413" x="0" y="0" width="96" height="96" filterUnits="userSpaceOnUse" color-interpolation-filters="sRGB"><feFlood flood-opacity="0" result="BackgroundImageFix"/><feColorMatrix in="SourceAlpha" values="0 0 0 0 0 0 0 0 0 0 0 0 0 0 0 0 0 0 127 0" result="hardAlpha"/><feOffset dy="2"/><feGaussianBlur stdDeviation="12"/><feComposite in2="hardAlpha" operator="out"/><feColorMatrix values="0 0 0 0 0 0 0 0 0 0 0 0 0 0 0 0 0 0 0.4 0"/><feBlend in2="BackgroundImageFix" result="effect1_dropShadow_621_74413"/><feBlend in="SourceGraphic" in2="effect1_dropShadow_621_74413" result="shape"/></filter></defs></svg>