<svg width="26" height="26" fill="none" xmlns="http://www.w3.org/2000/svg"><rect width="26" height="26" rx="13" fill="#343961"/><path d="M11.75 5.655a6.57 6.57 0 0 0-2.625.531 6.815 6.815 0 0 0-2.148 1.446A6.815 6.815 0 0 0 5.53 9.78 6.569 6.569 0 0 0 5 12.405c0 .927.177 1.802.531 2.625.354.823.836 1.54 1.446 2.149a6.816 6.816 0 0 0 2.148 1.445 6.57 6.57 0 0 0 2.625.531 6.57 6.57 0 0 0 2.625-.531 6.815 6.815 0 0 0 2.148-1.445 6.816 6.816 0 0 0 1.446-2.149 6.57 6.57 0 0 0 .531-2.625 6.57 6.57 0 0 0-.531-2.625 6.815 6.815 0 0 0-1.446-2.148 6.814 6.814 0 0 0-2.148-1.446 6.57 6.57 0 0 0-2.625-.531Zm0 2.813a.71.71 0 0 1 .531.226.731.731 0 0 1 .219.524v2.437h2.406c.198 0 .373.073.524.219a.71.71 0 0 1 .226.531.711.711 0 0 1-.226.531.731.731 0 0 1-.524.219H12.5v2.406a.731.731 0 0 1-.219.524.71.71 0 0 1-.531.226.71.71 0 0 1-.531-.226.731.731 0 0 1-.219-.524v-2.406H8.562a.731.731 0 0 1-.523-.219.711.711 0 0 1-.226-.531.71.71 0 0 1 .226-.531.731.731 0 0 1 .524-.219H11V9.218c0-.198.073-.373.219-.524a.71.71 0 0 1 .531-.226Z" fill="#0DD39C"/></svg>