<svg width="26" height="27" fill="none" xmlns="http://www.w3.org/2000/svg"><rect y=".2" width="26" height="26" rx="13" fill="#343961"/><path d="M12.75 6.13a6.57 6.57 0 0 0-2.625.531 6.814 6.814 0 0 0-2.148 1.446 6.815 6.815 0 0 0-1.446 2.148A6.57 6.57 0 0 0 6 12.88c0 .927.177 1.802.531 2.625.354.823.836 1.54 1.446 2.148a6.815 6.815 0 0 0 2.148 1.446 6.57 6.57 0 0 0 2.625.531 6.57 6.57 0 0 0 2.625-.531 6.814 6.814 0 0 0 2.148-1.446 6.814 6.814 0 0 0 1.446-2.148 6.57 6.57 0 0 0 .531-2.625 6.57 6.57 0 0 0-.531-2.625 6.815 6.815 0 0 0-1.446-2.148 6.814 6.814 0 0 0-2.148-1.446 6.57 6.57 0 0 0-2.625-.531Zm0 2.813a.71.71 0 0 1 .531.226.731.731 0 0 1 .219.524v2.437h2.406c.198 0 .373.073.524.219a.71.71 0 0 1 .226.531.711.711 0 0 1-.226.531.731.731 0 0 1-.524.219H13.5v2.406a.731.731 0 0 1-.219.524.711.711 0 0 1-.531.226.711.711 0 0 1-.531-.226.731.731 0 0 1-.219-.524V13.63H9.562a.731.731 0 0 1-.523-.219.711.711 0 0 1-.226-.531.71.71 0 0 1 .226-.531.731.731 0 0 1 .524-.219H12V9.692c0-.197.073-.372.219-.523a.71.71 0 0 1 .531-.226Z" fill="#0DD39C"/></svg>