<svg width="26" height="26" fill="none" xmlns="http://www.w3.org/2000/svg"><rect width="26" height="26" rx="13" fill="#343961"/><path d="M12.75 5.93a6.57 6.57 0 0 0-2.625.531 6.814 6.814 0 0 0-2.148 1.446 6.814 6.814 0 0 0-1.446 2.148A6.57 6.57 0 0 0 6 12.68c0 .927.177 1.802.531 2.625a6.815 6.815 0 0 0 1.446 2.148 6.815 6.815 0 0 0 2.148 1.446 6.569 6.569 0 0 0 2.625.531c.927 0 1.802-.177 2.625-.531a6.814 6.814 0 0 0 2.148-1.446 6.815 6.815 0 0 0 1.446-2.148 6.571 6.571 0 0 0 .531-2.625 6.57 6.57 0 0 0-.531-2.625 6.814 6.814 0 0 0-1.446-2.148 6.814 6.814 0 0 0-2.148-1.446 6.57 6.57 0 0 0-2.625-.531Zm0 2.813a.71.71 0 0 1 .531.226.731.731 0 0 1 .219.524v2.437h2.406c.198 0 .373.073.524.219a.71.71 0 0 1 .226.531.71.71 0 0 1-.226.531.732.732 0 0 1-.524.22H13.5v2.405a.731.731 0 0 1-.219.524.71.71 0 0 1-.531.226.71.71 0 0 1-.531-.226.731.731 0 0 1-.219-.524V13.43H9.562a.731.731 0 0 1-.523-.219.71.71 0 0 1-.226-.53.71.71 0 0 1 .226-.532.731.731 0 0 1 .524-.219H12V9.493c0-.198.073-.373.219-.524a.71.71 0 0 1 .531-.226Z" fill="#0DD39C"/></svg>