<svg width="56" height="56" fill="none" xmlns="http://www.w3.org/2000/svg"><g clip-path="url('#clip0_621_72977')"><path d="M25.277.926a4.465 4.465 0 0 1 5.445 0l3.63 2.796a4.462 4.462 0 0 0 2.86.924l4.59-.14a4.443 4.443 0 0 1 4.405 3.182l1.284 4.384a4.42 4.42 0 0 0 1.767 2.419l3.797 2.568a4.406 4.406 0 0 1 1.683 5.15l-1.553 4.296a4.391 4.391 0 0 0 0 2.99l1.553 4.297a4.406 4.406 0 0 1-1.683 5.149l-3.797 2.569a4.42 4.42 0 0 0-1.767 2.418l-1.284 4.384a4.443 4.443 0 0 1-4.405 3.183l-4.59-.141a4.462 4.462 0 0 0-2.86.924l-3.63 2.796a4.465 4.465 0 0 1-5.445 0l-3.63-2.796a4.462 4.462 0 0 0-2.86-.924l-4.59.14a4.443 4.443 0 0 1-4.404-3.182l-1.284-4.384a4.421 4.421 0 0 0-1.767-2.418l-3.797-2.57a4.406 4.406 0 0 1-1.683-5.148l1.553-4.297c.35-.966.35-2.024 0-2.99l-1.553-4.297a4.406 4.406 0 0 1 1.683-5.149l3.797-2.569a4.42 4.42 0 0 0 1.767-2.418l1.284-4.384a4.443 4.443 0 0 1 4.405-3.183l4.59.141a4.462 4.462 0 0 0 2.86-.924l3.63-2.796Z" fill="#C4C4C4"/><path d="M25.277.926a4.465 4.465 0 0 1 5.445 0l3.63 2.796a4.462 4.462 0 0 0 2.86.924l4.59-.14a4.443 4.443 0 0 1 4.405 3.182l1.284 4.384a4.42 4.42 0 0 0 1.767 2.419l3.797 2.568a4.406 4.406 0 0 1 1.683 5.15l-1.553 4.296a4.391 4.391 0 0 0 0 2.99l1.553 4.297a4.406 4.406 0 0 1-1.683 5.149l-3.797 2.569a4.42 4.42 0 0 0-1.767 2.418l-1.284 4.384a4.443 4.443 0 0 1-4.405 3.183l-4.59-.141a4.462 4.462 0 0 0-2.86.924l-3.63 2.796a4.465 4.465 0 0 1-5.445 0l-3.63-2.796a4.462 4.462 0 0 0-2.86-.924l-4.59.14a4.443 4.443 0 0 1-4.404-3.182l-1.284-4.384a4.421 4.421 0 0 0-1.767-2.418l-3.797-2.57a4.406 4.406 0 0 1-1.683-5.148l1.553-4.297c.35-.966.35-2.024 0-2.99l-1.553-4.297a4.406 4.406 0 0 1 1.683-5.149l3.797-2.569a4.42 4.42 0 0 0 1.767-2.418l1.284-4.384a4.443 4.443 0 0 1 4.405-3.183l4.59.141a4.462 4.462 0 0 0 2.86-.924l3.63-2.796Z" fill="#FD0"/><path d="M25.277.926a4.465 4.465 0 0 1 5.445 0l3.63 2.796a4.462 4.462 0 0 0 2.86.924l4.59-.14a4.443 4.443 0 0 1 4.405 3.182l1.284 4.384a4.42 4.42 0 0 0 1.767 2.419l3.797 2.568a4.406 4.406 0 0 1 1.683 5.15l-1.553 4.296a4.391 4.391 0 0 0 0 2.99l1.553 4.297a4.406 4.406 0 0 1-1.683 5.149l-3.797 2.569a4.42 4.42 0 0 0-1.767 2.418l-1.284 4.384a4.443 4.443 0 0 1-4.405 3.183l-4.59-.141a4.462 4.462 0 0 0-2.86.924l-3.63 2.796a4.465 4.465 0 0 1-5.445 0l-3.63-2.796a4.462 4.462 0 0 0-2.86-.924l-4.59.14a4.443 4.443 0 0 1-4.404-3.182l-1.284-4.384a4.421 4.421 0 0 0-1.767-2.418l-3.797-2.57a4.406 4.406 0 0 1-1.683-5.148l1.553-4.297c.35-.966.35-2.024 0-2.99l-1.553-4.297a4.406 4.406 0 0 1 1.683-5.149l3.797-2.569a4.42 4.42 0 0 0 1.767-2.418l1.284-4.384a4.443 4.443 0 0 1 4.405-3.183l4.59.141a4.462 4.462 0 0 0 2.86-.924l3.63-2.796Z" fill="#FFDE03"/><path d="m30.36 1.392 3.63 2.796a5.056 5.056 0 0 0 3.24 1.047l4.59-.14a3.85 3.85 0 0 1 3.818 2.758l1.284 4.384a5.012 5.012 0 0 0 2.003 2.74l3.797 2.57a3.818 3.818 0 0 1 1.458 4.462l-1.553 4.297a4.98 4.98 0 0 0 0 3.388l1.553 4.297a3.819 3.819 0 0 1-1.458 4.463l-3.797 2.568a5.01 5.01 0 0 0-2.003 2.742l-1.284 4.383a3.85 3.85 0 0 1-3.817 2.759l-4.59-.141a5.056 5.056 0 0 0-3.241 1.047l-3.63 2.797a3.871 3.871 0 0 1-4.72 0l-3.63-2.797a5.057 5.057 0 0 0-3.24-1.047l-4.59.14a3.85 3.85 0 0 1-3.818-2.758l-1.284-4.383a5.01 5.01 0 0 0-2.003-2.742l-3.797-2.568A3.819 3.819 0 0 1 1.82 33.99l1.553-4.297a4.983 4.983 0 0 0 0-3.388L1.82 22.009a3.819 3.819 0 0 1 1.458-4.463l3.797-2.568a5.011 5.011 0 0 0 2.003-2.741l1.284-4.384a3.85 3.85 0 0 1 3.818-2.758l4.59.14a5.057 5.057 0 0 0 3.24-1.047l3.63-2.796a3.87 3.87 0 0 1 4.72 0Z" stroke="#fff" stroke-opacity=".6"/><path d="M28 49.216c11.784 0 21.337-9.499 21.337-21.216S39.784 6.785 28 6.785C16.216 6.785 6.663 16.283 6.663 28S16.216 49.216 28 49.216Z" fill="#FCCC07"/><path d="M28 48.832c11.567 0 20.948-9.324 20.948-20.832 0-11.508-9.381-20.832-20.948-20.832C16.434 7.168 7.052 16.492 7.052 28c0 11.508 9.382 20.832 20.948 20.832Z" stroke="#fff" stroke-opacity=".7" stroke-linecap="round"/><path d="M38.309 24.562 20.247 34.93a1.413 1.413 0 0 0-.522 1.937l.891 1.535a1.43 1.43 0 0 0 1.948.519l18.062-10.369a1.413 1.413 0 0 0 .522-1.936l-.892-1.535a1.43 1.43 0 0 0-1.947-.52ZM22.832 39.585l18.235-10.468c.541.933.22 2.125-.718 2.663l-14.838 8.518a1.967 1.967 0 0 1-2.678-.713ZM20.084 22.178c-.923-.639-1.705-1.549-1.662-2.667.044-1.154.54-2.672 2.492-3.793 1.877-1.077 3.45-.84 4.525-.368 1.13.497 1.613 1.73 1.717 2.954l.401 4.728c.157 1.844 1.508 3.38 3.323 3.791.525.12.636.819.17 1.087l-4.4 2.526a.593.593 0 0 1-.861-.69 4.256 4.256 0 0 0-1.641-4.757l-4.064-2.81Z" fill="#fff"/><path d="m21.26 31.685-2.503.257m12.587-8.643.681-4.64m2.982 5.135 1.475-2.028m-13.82 6.518-4.589-2.088" stroke="#fff" stroke-linecap="round"/></g><defs><clipPath id="clip0_621_72977"><path fill="#fff" d="M0 0h56v56H0z"/></clipPath></defs></svg>