<svg width="27" height="23" fill="none" xmlns="http://www.w3.org/2000/svg"><g clip-path="url('#clip0_632_80469')"><mask id="mask0_632_80469" style="mask-type:alpha" maskUnits="userSpaceOnUse" x="1" y="1" width="25" height="22"><path d="M25.69 1h-24v21.333h24V1Z" fill="#fff"/></mask><g mask="url('#mask0_632_80469')"><path d="M1.69 21.163c2.045-1.93 6.935-3.477 12.08-4.125.956-.12 1.908-.212 2.839-.282.034-.003.316-.014.316-.014l.427.959.519-1.02.412-.027c2.626-.125 4.974-.075 6.595.038-.419.88-1.34 2.791-1.34 2.791-1.521-.486-6.248-1.019-10.83-.653-5.577.446-10.448 2.122-11.018 2.333Z" fill="#D51A3D"/><path d="M17.36 17.587 13.886 9.28l-3.474 8.307L2.082 1l3.229 8.743 4.996 12.59 3.579-7.892 3.578 7.892 4.997-12.59L25.69 1 17.36 17.587Z" fill="#F0FEFE"/><path d="m23.946 1.025-6.433 8.232-3.616-8.005-3.615 8.005L3.85 1.025l6.482 12.455 3.566-8.916 3.568 8.916 6.48-12.455Z" fill="#F0FEFE"/></g></g><defs><clipPath id="clip0_632_80469"><path fill="#fff" transform="translate(.69)" d="M0 0h26v23H0z"/></clipPath></defs></svg>