<svg width="15" height="16" fill="none" xmlns="http://www.w3.org/2000/svg"><g clip-path="url('#clip0_621_74327')"><path d="M7.5 15.33a7.5 7.5 0 1 0 0-15 7.5 7.5 0 0 0 0 15Z" fill="#23E996"/><path d="M6.72 8.706v1.086h.523c.22 0 .376.044.469.133.093.088.14.234.14.44 0 .208-.048.358-.143.45-.094.091-.25.138-.466.138H5.487c-.223 0-.383-.046-.48-.138-.096-.092-.144-.242-.145-.451 0-.187.046-.33.137-.427.092-.097.225-.146.4-.145h.087V5.84H5.4c-.173 0-.305-.05-.398-.151-.093-.101-.14-.245-.14-.432 0-.205.049-.354.147-.448.099-.094.257-.14.477-.14h2.095c.83 0 1.456.166 1.88.498.424.332.637.821.638 1.468 0 .682-.212 1.198-.635 1.547-.422.35-1.05.525-1.882.526l-.862-.002Zm0-2.866v1.674h.72c.4 0 .7-.07.9-.212.203-.142.303-.354.303-.636a.699.699 0 0 0-.312-.612c-.208-.143-.505-.214-.89-.214H6.72Z" fill="#fff"/></g><defs><clipPath id="clip0_621_74327"><path fill="#fff" transform="translate(0 .33)" d="M0 0h15v15H0z"/></clipPath></defs></svg>