<svg width="16" height="15" fill="none" xmlns="http://www.w3.org/2000/svg"><g clip-path="url('#clip0_621_74348')"><path fill-rule="evenodd" clip-rule="evenodd" d="M.852 3.334A2.707 2.707 0 0 1 3.56.626h6.943a2.707 2.707 0 0 1 2.707 2.708v2.082a.625.625 0 0 1-1.249 0V3.334c0-.806-.653-1.458-1.458-1.458H3.56c-.805 0-1.458.652-1.458 1.458v6.248c0 .805.653 1.458 1.458 1.458h3.472a.624.624 0 0 1 0 1.249H3.559A2.706 2.706 0 0 1 .852 9.582V3.334ZM3.63 4.722c0-.345.28-.625.625-.625h5.554a.624.624 0 0 1 0 1.25H4.254a.625.625 0 0 1-.625-.625Zm8.31 3.233a1.32 1.32 0 0 1 1.866 0l1.1 1.1a1.318 1.318 0 0 1 0 1.866l-2.37 2.37a1.314 1.314 0 0 1-.932.387H9.808a.625.625 0 0 1-.625-.625v-1.795c0-.35.138-.685.386-.933l2.37-2.37Zm.982.884a.068.068 0 0 0-.097-.001l-2.37 2.37a.072.072 0 0 0-.02.05v1.17h1.17a.07.07 0 0 0 .048-.02l2.37-2.37a.069.069 0 0 0 0-.098l-1.1-1.1v-.001ZM3.63 8.193c0-.345.28-.625.625-.625H7.03a.624.624 0 0 1 0 1.25H4.254a.625.625 0 0 1-.625-.625Z" fill="#B4BAE9"/></g><defs><clipPath id="clip0_621_74348"><path fill="#fff" transform="translate(.41 .49)" d="M0 0h15v14H0z"/></clipPath></defs></svg>